<?xml version="1.0" encoding="utf-8"?>
<!-- Generator: Adobe Illustrator 16.0.0, SVG Export Plug-In . SVG Version: 6.00 Build 0)  -->
<!DOCTYPE svg PUBLIC "-//W3C//DTD SVG 1.1//EN" "http://www.w3.org/Graphics/SVG/1.1/DTD/svg11.dtd">
<svg version="1.1" id="Calque_1" xmlns="http://www.w3.org/2000/svg" xmlns:xlink="http://www.w3.org/1999/xlink" x="0px" y="0px"
	 width="28.346px" height="20.377px" viewBox="-0.173 0 28.346 20.377" enable-background="new -0.173 0 28.346 20.377"
	 xml:space="preserve">
<path fill="#FFFFFF" d="M13.397,13.167C5.917,13.167,0,14.185,0,15.435c0,1.254,5.917,2.27,13.397,2.27s13.656-1.016,13.656-2.27
	C27.057,14.183,20.88,13.167,13.397,13.167z M13.148,16.032c-1.731,0-3.138-0.438-3.138-0.979c0-0.541,1.406-0.979,3.138-0.979
	c1.733,0,3.136,0.438,3.136,0.979S14.88,16.032,13.148,16.032z M24.113,4.104h-6.551l-3.498,4.135L12.4,4.16H2.072L1.689,5.938
	h4.106c0,0,1.878-0.252,1.939,1.281c0,2.655-4.301,2.432-4.301,2.432L4.237,6.88H1.573L0.35,11.374h4.83
	c0,0,5.108-0.463,5.108-4.097c0,0,0.206-1.06,0.119-1.527l2.489,6.793l6.22-6.586h4.717c0,0,1.446,0.125,1.446,1.265
	c0,2.655-4.271,2.378-4.271,2.378l0.661-2.718h-2.33l-1.333,4.494h4.441c0,0,5.552-0.352,5.552-4.209
	C28,7.165,27.889,4.104,24.113,4.104z"/>
</svg>
