<?xml version="1.0" standalone="no"?>
<!DOCTYPE svg PUBLIC "-//W3C//DTD SVG 20010904//EN"
 "http://www.w3.org/TR/2001/REC-SVG-20010904/DTD/svg10.dtd">
<svg version="1.0" xmlns="http://www.w3.org/2000/svg"
 width="200.000000pt" height="200.000000pt" viewBox="0 0 200.000000 200.000000"
 preserveAspectRatio="xMidYMid meet">
<metadata>
Created by potrace 1.11, written by Peter Selinger 2001-2013
</metadata>
<g transform="translate(0.000000,200.000000) scale(0.100000,-0.100000)"
fill="#000000" stroke="none">
<path d="M902 1885 c-35 -7 -120 -40 -190 -71 -121 -54 -132 -57 -234 -63 -62
-4 -112 -12 -122 -20 -20 -17 -31 -52 -60 -194 -29 -136 -57 -198 -144 -315
-79 -106 -97 -164 -89 -282 7 -107 34 -184 97 -280 51 -79 80 -138 124 -256
39 -104 102 -186 168 -217 76 -37 130 -41 304 -27 123 11 171 11 246 1 175
-24 241 -25 299 -6 109 35 313 160 395 242 107 107 142 211 198 587 13 88 13
108 0 178 -14 75 -47 168 -59 168 -3 0 -1 -9 5 -20 18 -34 4 -22 -24 20 -31
47 -34 65 -5 30 l21 -25 -14 25 c-9 14 -21 25 -27 25 -13 0 -50 44 -51 59 0 5
8 2 18 -5 15 -13 16 -12 3 3 -7 10 -17 16 -21 13 -5 -3 -18 8 -29 24 -23 32
-27 46 -9 35 7 -4 8 -3 4 5 -4 6 -11 9 -16 6 -5 -3 -18 8 -29 24 -24 33 -27
46 -8 35 8 -5 7 -2 -2 9 -8 10 -16 15 -19 12 -7 -7 -32 15 -32 27 0 6 8 5 18
-2 9 -7 -17 21 -59 63 -59 58 -96 85 -160 115 -158 75 -365 108 -497 77z
m-459 -181 c3 -4 -7 -26 -24 -50 -16 -24 -48 -96 -70 -161 -22 -64 -67 -164
-99 -222 -70 -126 -87 -182 -97 -320 -5 -59 -13 -106 -19 -108 -35 -12 -58
181 -31 261 9 25 43 83 76 129 79 109 107 173 137 314 30 141 42 163 88 163
18 0 35 -3 39 -6z m1133 -36 l29 -33 -32 29 c-31 28 -38 36 -30 36 2 0 16 -15
33 -32z m-112 -67 c63 -51 128 -131 166 -203 42 -78 32 -74 -15 6 -38 65 -128
166 -200 225 -22 18 -31 28 -19 23 11 -6 42 -29 68 -51z m-706 -243 c7 -6 62
-81 122 -166 74 -104 110 -163 110 -181 0 -29 -50 -87 -65 -74 -4 5 -6 1 -3
-7 6 -18 -48 -101 -64 -97 -6 1 -13 -4 -16 -12 -3 -9 0 -11 9 -6 8 5 11 4 6
-1 -5 -5 -12 -8 -15 -7 -10 2 -32 -18 -32 -29 0 -6 8 -4 17 3 9 8 4 -5 -12
-28 -15 -24 -30 -43 -32 -43 -3 0 2 12 12 26 33 51 8 32 -48 -36 -31 -39 -63
-70 -70 -69 -9 0 -9 2 0 5 13 6 126 152 220 285 l60 86 -41 59 c-23 32 -77
108 -119 167 -43 60 -74 114 -71 120 4 7 4 9 -1 5 -4 -4 -17 -1 -28 7 -12 8
-31 12 -44 9 -18 -5 -23 -2 -23 13 0 20 1 20 58 1 31 -11 63 -25 70 -30z m411
25 c2 -2 -5 -3 -17 -3 -14 0 -22 6 -22 16 0 14 3 15 18 3 9 -7 19 -15 21 -16z
m54 -15 c15 -12 15 -16 1 -43 -21 -43 -138 -204 -130 -180 5 13 -4 8 -24 -15
-46 -52 -34 -28 53 101 42 64 77 121 77 127 0 6 -6 13 -12 15 -9 4 -8 6 3 6 8
1 23 -5 32 -11z m522 -188 c11 -41 17 -103 17 -170 1 -301 -151 -563 -401
-693 -95 -50 -129 -56 -46 -8 154 87 263 202 339 356 56 113 75 183 83 311 5
88 -6 226 -23 282 -5 15 -4 15 4 2 6 -8 18 -44 27 -80z m-48 -62 c-3 -8 -6 -5
-6 6 -1 11 2 17 5 13 3 -3 4 -12 1 -19z m10 -140 c-8 -169 -53 -294 -152 -426
-50 -67 -138 -143 -208 -182 -53 -29 -39 -16 36 34 83 56 178 163 225 254 54
103 81 205 89 330 3 56 8 102 11 102 3 0 2 -51 -1 -112z m-596 -100 c40 -51
108 -135 151 -186 78 -91 107 -143 69 -123 -40 22 -258 273 -317 366 -16 27
-17 28 -1 16 15 -12 17 -12 11 3 -15 40 20 9 87 -76z m-727 -251 c26 -43 46
-67 46 -52 0 3 -7 17 -16 30 -9 14 -14 25 -11 25 2 0 17 -19 32 -42 16 -24 51
-68 79 -98 l50 -55 -52 50 c-29 27 -52 44 -52 39 0 -11 75 -85 145 -142 l40
-32 -40 22 c-57 32 -184 163 -224 231 -36 61 -74 160 -85 217 -3 19 9 -6 27
-55 19 -50 46 -112 61 -138z m326 -7 c-8 -5 -19 -10 -25 -10 -5 0 -3 5 5 10 8
5 20 10 25 10 6 0 3 -5 -5 -10z m-85 -27 c-21 -15 -30 -10 -22 11 4 10 13 13
23 9 15 -6 15 -7 -1 -20z"/>
<path d="M940 960 c-6 -11 -8 -20 -6 -20 3 0 10 9 16 20 6 11 8 20 6 20 -3 0
-10 -9 -16 -20z"/>
<path d="M892 893 c-26 -38 -34 -53 -29 -53 2 0 16 18 31 40 29 45 28 56 -2
13z"/>
<path d="M1151 1249 c-28 -45 -51 -83 -49 -84 2 -2 27 32 57 76 30 43 52 81
50 84 -3 2 -29 -32 -58 -76z"/>
<path d="M1120 816 c0 -2 8 -10 18 -17 15 -13 16 -12 3 4 -13 16 -21 21 -21
13z"/>
<path d="M1175 750 c10 -11 20 -20 23 -20 3 0 -3 9 -13 20 -10 11 -20 20 -23
20 -3 0 3 -9 13 -20z"/>
<path d="M1270 645 c35 -36 67 -65 69 -65 3 0 -24 29 -59 65 -35 36 -67 65
-69 65 -3 0 24 -29 59 -65z"/>
<path d="M430 562 c0 -5 7 -15 15 -22 8 -7 15 -8 15 -2 0 5 -7 15 -15 22 -8 7
-15 8 -15 2z"/>
</g>
</svg>
