<svg xmlns="http://www.w3.org/2000/svg" width="50" height="50" viewBox="0 0 50 50"><defs><style>.a{fill:#333;}.b{fill:#fff;}</style></defs><g transform="translate(-1516.994 -842)"><g transform="translate(-280 -39)"><circle class="a" cx="25" cy="25" r="25" transform="translate(1796.994 881)"/><path class="b" d="M.925.152.157.925a.485.485,0,0,0,0,.714L6.229,7.712.157,13.784a.479.479,0,0,0,0,.709l.774.774a.485.485,0,0,0,.714,0l7.2-7.2a.485.485,0,0,0,0-.714L1.64.152a.5.5,0,0,0-.714,0Z" transform="translate(1817.994 898)"/></g></g></svg>