<svg data-v-58e2f4ad="" data-v-4f3ac456="" xmlns="http://www.w3.org/2000/svg" viewBox="0 0 26.843 22" class=" SvgInline SvgInline-secure" width="26.843" height="22">
  <defs xmlns="http://www.w3.org/2000/svg">
    <style>
      .cls-1 { fill: #262626; }
    </style>
  </defs>
  <g xmlns="http://www.w3.org/2000/svg" id="CLE_MAIN" data-name="CLE MAIN" transform="translate(0)">
    <path id="Tracé_252" data-name="Tracé 252" class="cls-1" d="M25.061,165.626c-1.587.1-3.674,1.685-5.686,2.595-2.466,1.117-6.307.219-6.307.219.591-.277,3-.852,3.484-1.064,2.577-1.133,2.36-3.5,1.132-3.477-1.622.026-2.574.425-5.81.865-2.453.335-5.353.213-6.744.744C3.165,166.257,0,171.3,0,171.3l4.892,4.74s3.028-2.982,4.5-2.982c3.357,0,3.492-.045,6.61-.213a6.833,6.833,0,0,0,2.359-.382c4.041-1.366,8.38-5,8.459-5.441C27.009,166.011,25.9,165.575,25.061,165.626Z" transform="translate(0 -154.044)"></path>
    <path id="Tracé_253" data-name="Tracé 253" class="cls-1" d="M111.313,39.672a2.768,2.768,0,0,0,2.764-2.731h6.248v1.79a.352.352,0,0,0,.352.351h1.283a.352.352,0,0,0,.352-.351v-.779h1.7v.779a.352.352,0,0,0,.352.351h1.286a.352.352,0,0,0,.352-.351V35.412a.352.352,0,0,0-.352-.352l-11.575,0a2.766,2.766,0,0,0-5.532.036v1.807A2.77,2.77,0,0,0,111.313,39.672ZM110.165,35.1a1.147,1.147,0,0,1,2.294,0v1.807a1.147,1.147,0,0,1-2.294,0Z" transform="translate(-100.415 -32.332)"></path>
  </g>
</svg>